# xmcd
#
# Track frame offsets:
#	187
#	12215
#	29982
#
# Disc length: 559 seconds
#
# Revision: 1
# Processed by: cddbd v1.5.1PL0 Copyright (c) Steve Scherf et al.
# Submitted via: CDex 1.50Beta5
#
DISCID=20022d03
DTITLE=井上陽水 - 愛は君
DYEAR=1900
DGENRE=Pop
TTITLE0=愛は君
TTITLE1=あこがれ
TTITLE2=愛は君(オリジナル・カラオケ)
EXTD=
EXTT0=
EXTT1=
EXTT2=
PLAYORDER=
